<svg width="22" height="22" viewBox="0 0 22 22" fill="none" xmlns="http://www.w3.org/2000/svg">
<path fill-rule="evenodd" clip-rule="evenodd" d="M10.9864 0C13.9224 0 16.3479 2.11451 16.6469 4.8189L16.7304 4.81983C18.3591 4.81983 20.3394 5.84223 21.0077 8.70984L21.894 15.1935C22.2119 17.2861 21.8142 18.9646 20.7101 20.1686C19.6115 21.3662 17.8727 22 15.6813 22H6.30431C3.89717 22 2.22015 21.4426 1.17665 20.2971C0.128647 19.1483 -0.221808 17.4252 0.135387 15.1766L1.00703 8.77885C1.57989 5.84542 3.67477 4.81983 5.29675 4.81983C5.43678 3.5994 6.019 2.43837 6.94266 1.56811C8.00413 0.571186 9.46774 0 10.9628 0H10.9864ZM16.7304 6.41236H5.29675C4.80139 6.41236 3.14571 6.60134 2.67058 9.02622L1.80342 15.3963C1.52148 17.1831 1.7394 18.4763 2.45266 19.2587C3.15695 20.0316 4.41724 20.4075 6.30431 20.4075H15.6813C16.8584 20.4075 18.4658 20.1856 19.4363 19.126C20.2068 18.2862 20.4719 17.0356 20.2248 15.408L19.3498 8.98269C18.9769 7.39972 17.9929 6.41236 16.7304 6.41236ZM14.2624 9.36819C14.7274 9.36819 15.1306 9.72492 15.1306 10.1645C15.1306 10.604 14.7791 10.9607 14.314 10.9607H14.2624C13.7973 10.9607 13.4199 10.604 13.4199 10.1645C13.4199 9.72492 13.7973 9.36819 14.2624 9.36819ZM7.71366 9.36819C8.17869 9.36819 8.58194 9.72492 8.58194 10.1645C8.58194 10.604 8.22923 10.9607 7.76421 10.9607H7.71366C7.24863 10.9607 6.87122 10.604 6.87122 10.1645C6.87122 9.72492 7.24863 9.36819 7.71366 9.36819ZM10.983 1.59253H10.9662C9.90917 1.59253 8.87915 1.9949 8.13218 2.69668C7.52372 3.26921 7.12577 4.02187 6.99704 4.81934L14.9489 4.81963C14.6602 2.99541 12.9913 1.59253 10.983 1.59253Z" fill="#DF1A5A"/>
</svg>
