<svg width="22" height="22" viewBox="0 0 22 22" fill="none" xmlns="http://www.w3.org/2000/svg">
<path fill-rule="evenodd" clip-rule="evenodd" d="M11.0018 0C13.9425 0 16.7061 1.1433 18.7819 3.22006C23.0727 7.51075 23.0727 14.4913 18.7819 18.782C16.6785 20.8864 13.8463 22 10.9772 22C9.41318 22 7.83893 21.6694 6.36602 20.9877C5.93203 20.8137 5.52567 20.6499 5.23395 20.6499C4.89822 20.652 4.44683 20.8076 4.01079 20.958C3.11619 21.2651 2.00255 21.6479 1.17857 20.827C0.357673 20.0051 0.736393 18.8946 1.04142 18.001C1.19188 17.5609 1.34644 17.1064 1.34644 16.7625C1.34644 16.48 1.21031 16.1198 1.0015 15.6008C-0.915646 11.4606 -0.029236 6.47083 3.22264 3.22108C5.29844 1.14432 8.06105 0 11.0018 0ZM11.0028 1.53531C8.4715 1.53531 6.09375 2.51996 4.30762 4.30706C1.50919 7.10338 0.747652 11.3971 2.41095 14.9928C2.65047 15.5855 2.88179 16.1627 2.88179 16.7625C2.88179 17.3613 2.67605 17.9642 2.49488 18.4964C2.34544 18.9345 2.11923 19.5957 2.26458 19.741C2.40686 19.8884 3.07218 19.6561 3.51129 19.5056C4.03842 19.3255 4.63619 19.1187 5.22883 19.1146C5.8225 19.1146 6.3824 19.3398 6.97504 19.5783C10.6056 21.2569 14.8995 20.4933 17.6969 17.697C21.3879 14.0041 21.3879 7.99693 17.6969 4.30604C15.9098 2.51894 13.533 1.53531 11.0028 1.53531ZM15.0427 10.4019C15.6077 10.4019 16.0663 10.8595 16.0663 11.4255C16.0663 11.9915 15.6077 12.449 15.0427 12.449C14.4777 12.449 14.015 11.9915 14.015 11.4255C14.015 10.8595 14.4685 10.4019 15.0335 10.4019H15.0427ZM10.9394 10.4019C11.5044 10.4019 11.963 10.8595 11.963 11.4255C11.963 11.9915 11.5044 12.449 10.9394 12.449C10.3744 12.449 9.91176 11.9915 9.91176 11.4255C9.91176 10.8595 10.3642 10.4019 10.9302 10.4019H10.9394ZM6.83573 10.4019C7.40074 10.4019 7.8593 10.8595 7.8593 11.4255C7.8593 11.9915 7.40074 12.449 6.83573 12.449C6.27072 12.449 5.80807 11.9915 5.80807 11.4255C5.80807 10.8595 6.26151 10.4019 6.82652 10.4019H6.83573Z" fill="#DF1A5A"/>
</svg>
