<svg width="60" height="8" viewBox="0 0 60 8" fill="none" xmlns="http://www.w3.org/2000/svg">
<path d="M7.74143 2.81703L5.34319 2.45204L4.27111 0.176068C4.24183 0.113753 4.19365 0.0633076 4.13415 0.0326447C3.98491 -0.0445069 3.80355 0.0197861 3.72893 0.176068L2.65685 2.45204L0.258607 2.81703C0.192487 2.82692 0.132035 2.85956 0.0857515 2.90902C0.0297973 2.96924 -0.0010361 3.05026 2.65856e-05 3.13428C0.00108927 3.2183 0.033961 3.29844 0.0914189 3.35709L1.82658 5.12861L1.41664 7.6301C1.40703 7.68829 1.41318 7.74814 1.43439 7.80286C1.4556 7.85757 1.49104 7.90497 1.53666 7.93967C1.58229 7.97438 1.6363 7.995 1.69255 7.9992C1.7488 8.0034 1.80505 7.99101 1.85492 7.96344L4.00002 6.78242L6.14512 7.96344C6.20368 7.99608 6.27169 8.00696 6.33687 7.99509C6.50122 7.96542 6.61173 7.80221 6.5834 7.6301L6.17346 5.12861L7.90862 3.35709C7.95585 3.30862 7.98702 3.24532 7.99646 3.17608C8.02197 3.00298 7.90673 2.84275 7.74143 2.81703Z" fill="#F4A703"/>
<path d="M7.74143 2.81703L5.34319 2.45204L4.27111 0.176068C4.24183 0.113753 4.19365 0.0633076 4.13415 0.0326447C3.98491 -0.0445069 3.80355 0.0197861 3.72893 0.176068L2.65685 2.45204L0.258607 2.81703C0.192487 2.82692 0.132035 2.85956 0.0857515 2.90902C0.0297973 2.96924 -0.0010361 3.05026 2.65856e-05 3.13428C0.00108927 3.2183 0.033961 3.29844 0.0914189 3.35709L1.82658 5.12861L1.41664 7.6301C1.40703 7.68829 1.41318 7.74814 1.43439 7.80286C1.4556 7.85757 1.49104 7.90497 1.53666 7.93967C1.58229 7.97438 1.6363 7.995 1.69255 7.9992C1.7488 8.0034 1.80505 7.99101 1.85492 7.96344L4.00002 6.78242L6.14512 7.96344C6.20368 7.99608 6.27169 8.00696 6.33687 7.99509C6.50122 7.96542 6.61173 7.80221 6.5834 7.6301L6.17346 5.12861L7.90862 3.35709C7.95585 3.30862 7.98702 3.24532 7.99646 3.17608C8.02197 3.00298 7.90673 2.84275 7.74143 2.81703Z" fill="#F4A703"/>
<path d="M7.74143 2.81703L5.34319 2.45204L4.27111 0.176068C4.24183 0.113753 4.19365 0.0633076 4.13415 0.0326447C3.98491 -0.0445069 3.80355 0.0197861 3.72893 0.176068L2.65685 2.45204L0.258607 2.81703C0.192487 2.82692 0.132035 2.85956 0.0857515 2.90902C0.0297973 2.96924 -0.0010361 3.05026 2.65856e-05 3.13428C0.00108927 3.2183 0.033961 3.29844 0.0914189 3.35709L1.82658 5.12861L1.41664 7.6301C1.40703 7.68829 1.41318 7.74814 1.43439 7.80286C1.4556 7.85757 1.49104 7.90497 1.53666 7.93967C1.58229 7.97438 1.6363 7.995 1.69255 7.9992C1.7488 8.0034 1.80505 7.99101 1.85492 7.96344L4.00002 6.78242L6.14512 7.96344C6.20368 7.99608 6.27169 8.00696 6.33687 7.99509C6.50122 7.96542 6.61173 7.80221 6.5834 7.6301L6.17346 5.12861L7.90862 3.35709C7.95585 3.30862 7.98702 3.24532 7.99646 3.17608C8.02197 3.00298 7.90673 2.84275 7.74143 2.81703Z" fill="#F4A703"/>
<path d="M20.7414 2.81703L18.3432 2.45204L17.2711 0.176068C17.2418 0.113753 17.1937 0.0633076 17.1341 0.0326447C16.9849 -0.0445069 16.8035 0.0197861 16.7289 0.176068L15.6569 2.45204L13.2586 2.81703C13.1925 2.82692 13.132 2.85956 13.0858 2.90902C13.0298 2.96924 12.999 3.05026 13 3.13428C13.0011 3.2183 13.034 3.29844 13.0914 3.35709L14.8266 5.12861L14.4166 7.6301C14.407 7.68829 14.4132 7.74814 14.4344 7.80286C14.4556 7.85757 14.491 7.90497 14.5367 7.93967C14.5823 7.97438 14.6363 7.995 14.6925 7.9992C14.7488 8.0034 14.805 7.99101 14.8549 7.96344L17 6.78242L19.1451 7.96344C19.2037 7.99608 19.2717 8.00696 19.3369 7.99509C19.5012 7.96542 19.6117 7.80221 19.5834 7.6301L19.1735 5.12861L20.9086 3.35709C20.9558 3.30862 20.987 3.24532 20.9965 3.17608C21.022 3.00298 20.9067 2.84275 20.7414 2.81703Z" fill="#F4A703"/>
<path d="M20.7414 2.81703L18.3432 2.45204L17.2711 0.176068C17.2418 0.113753 17.1937 0.0633076 17.1341 0.0326447C16.9849 -0.0445069 16.8035 0.0197861 16.7289 0.176068L15.6569 2.45204L13.2586 2.81703C13.1925 2.82692 13.132 2.85956 13.0858 2.90902C13.0298 2.96924 12.999 3.05026 13 3.13428C13.0011 3.2183 13.034 3.29844 13.0914 3.35709L14.8266 5.12861L14.4166 7.6301C14.407 7.68829 14.4132 7.74814 14.4344 7.80286C14.4556 7.85757 14.491 7.90497 14.5367 7.93967C14.5823 7.97438 14.6363 7.995 14.6925 7.9992C14.7488 8.0034 14.805 7.99101 14.8549 7.96344L17 6.78242L19.1451 7.96344C19.2037 7.99608 19.2717 8.00696 19.3369 7.99509C19.5012 7.96542 19.6117 7.80221 19.5834 7.6301L19.1735 5.12861L20.9086 3.35709C20.9558 3.30862 20.987 3.24532 20.9965 3.17608C21.022 3.00298 20.9067 2.84275 20.7414 2.81703Z" fill="#F4A703"/>
<path d="M20.7414 2.81703L18.3432 2.45204L17.2711 0.176068C17.2418 0.113753 17.1937 0.0633076 17.1341 0.0326447C16.9849 -0.0445069 16.8035 0.0197861 16.7289 0.176068L15.6569 2.45204L13.2586 2.81703C13.1925 2.82692 13.132 2.85956 13.0858 2.90902C13.0298 2.96924 12.999 3.05026 13 3.13428C13.0011 3.2183 13.034 3.29844 13.0914 3.35709L14.8266 5.12861L14.4166 7.6301C14.407 7.68829 14.4132 7.74814 14.4344 7.80286C14.4556 7.85757 14.491 7.90497 14.5367 7.93967C14.5823 7.97438 14.6363 7.995 14.6925 7.9992C14.7488 8.0034 14.805 7.99101 14.8549 7.96344L17 6.78242L19.1451 7.96344C19.2037 7.99608 19.2717 8.00696 19.3369 7.99509C19.5012 7.96542 19.6117 7.80221 19.5834 7.6301L19.1735 5.12861L20.9086 3.35709C20.9558 3.30862 20.987 3.24532 20.9965 3.17608C21.022 3.00298 20.9067 2.84275 20.7414 2.81703Z" fill="#F4A703"/>
<path d="M33.7414 2.81703L31.3432 2.45204L30.2711 0.176068C30.2418 0.113753 30.1937 0.0633076 30.1341 0.0326447C29.9849 -0.0445069 29.8035 0.0197861 29.7289 0.176068L28.6569 2.45204L26.2586 2.81703C26.1925 2.82692 26.132 2.85956 26.0858 2.90902C26.0298 2.96924 25.999 3.05026 26 3.13428C26.0011 3.2183 26.034 3.29844 26.0914 3.35709L27.8266 5.12861L27.4166 7.6301C27.407 7.68829 27.4132 7.74814 27.4344 7.80286C27.4556 7.85757 27.491 7.90497 27.5367 7.93967C27.5823 7.97438 27.6363 7.995 27.6925 7.9992C27.7488 8.0034 27.805 7.99101 27.8549 7.96344L30 6.78242L32.1451 7.96344C32.2037 7.99608 32.2717 8.00696 32.3369 7.99509C32.5012 7.96542 32.6117 7.80221 32.5834 7.6301L32.1735 5.12861L33.9086 3.35709C33.9558 3.30862 33.987 3.24532 33.9965 3.17608C34.022 3.00298 33.9067 2.84275 33.7414 2.81703Z" fill="#F4A703"/>
<path d="M33.7414 2.81703L31.3432 2.45204L30.2711 0.176068C30.2418 0.113753 30.1937 0.0633076 30.1341 0.0326447C29.9849 -0.0445069 29.8035 0.0197861 29.7289 0.176068L28.6569 2.45204L26.2586 2.81703C26.1925 2.82692 26.132 2.85956 26.0858 2.90902C26.0298 2.96924 25.999 3.05026 26 3.13428C26.0011 3.2183 26.034 3.29844 26.0914 3.35709L27.8266 5.12861L27.4166 7.6301C27.407 7.68829 27.4132 7.74814 27.4344 7.80286C27.4556 7.85757 27.491 7.90497 27.5367 7.93967C27.5823 7.97438 27.6363 7.995 27.6925 7.9992C27.7488 8.0034 27.805 7.99101 27.8549 7.96344L30 6.78242L32.1451 7.96344C32.2037 7.99608 32.2717 8.00696 32.3369 7.99509C32.5012 7.96542 32.6117 7.80221 32.5834 7.6301L32.1735 5.12861L33.9086 3.35709C33.9558 3.30862 33.987 3.24532 33.9965 3.17608C34.022 3.00298 33.9067 2.84275 33.7414 2.81703Z" fill="#F4A703"/>
<path d="M33.7414 2.81703L31.3432 2.45204L30.2711 0.176068C30.2418 0.113753 30.1937 0.0633076 30.1341 0.0326447C29.9849 -0.0445069 29.8035 0.0197861 29.7289 0.176068L28.6569 2.45204L26.2586 2.81703C26.1925 2.82692 26.132 2.85956 26.0858 2.90902C26.0298 2.96924 25.999 3.05026 26 3.13428C26.0011 3.2183 26.034 3.29844 26.0914 3.35709L27.8266 5.12861L27.4166 7.6301C27.407 7.68829 27.4132 7.74814 27.4344 7.80286C27.4556 7.85757 27.491 7.90497 27.5367 7.93967C27.5823 7.97438 27.6363 7.995 27.6925 7.9992C27.7488 8.0034 27.805 7.99101 27.8549 7.96344L30 6.78242L32.1451 7.96344C32.2037 7.99608 32.2717 8.00696 32.3369 7.99509C32.5012 7.96542 32.6117 7.80221 32.5834 7.6301L32.1735 5.12861L33.9086 3.35709C33.9558 3.30862 33.987 3.24532 33.9965 3.17608C34.022 3.00298 33.9067 2.84275 33.7414 2.81703Z" fill="#F4A703"/>
<path d="M46.7414 2.81703L44.3432 2.45204L43.2711 0.176068C43.2418 0.113753 43.1937 0.0633076 43.1341 0.0326447C42.9849 -0.0445069 42.8035 0.0197861 42.7289 0.176068L41.6569 2.45204L39.2586 2.81703C39.1925 2.82692 39.132 2.85956 39.0858 2.90902C39.0298 2.96924 38.999 3.05026 39 3.13428C39.0011 3.2183 39.034 3.29844 39.0914 3.35709L40.8266 5.12861L40.4166 7.6301C40.407 7.68829 40.4132 7.74814 40.4344 7.80286C40.4556 7.85757 40.491 7.90497 40.5367 7.93967C40.5823 7.97438 40.6363 7.995 40.6925 7.9992C40.7488 8.0034 40.805 7.99101 40.8549 7.96344L43 6.78242L45.1451 7.96344C45.2037 7.99608 45.2717 8.00696 45.3369 7.99509C45.5012 7.96542 45.6117 7.80221 45.5834 7.6301L45.1735 5.12861L46.9086 3.35709C46.9558 3.30862 46.987 3.24532 46.9965 3.17608C47.022 3.00298 46.9067 2.84275 46.7414 2.81703Z" fill="#F4A703"/>
<path d="M46.7414 2.81703L44.3432 2.45204L43.2711 0.176068C43.2418 0.113753 43.1937 0.0633076 43.1341 0.0326447C42.9849 -0.0445069 42.8035 0.0197861 42.7289 0.176068L41.6569 2.45204L39.2586 2.81703C39.1925 2.82692 39.132 2.85956 39.0858 2.90902C39.0298 2.96924 38.999 3.05026 39 3.13428C39.0011 3.2183 39.034 3.29844 39.0914 3.35709L40.8266 5.12861L40.4166 7.6301C40.407 7.68829 40.4132 7.74814 40.4344 7.80286C40.4556 7.85757 40.491 7.90497 40.5367 7.93967C40.5823 7.97438 40.6363 7.995 40.6925 7.9992C40.7488 8.0034 40.805 7.99101 40.8549 7.96344L43 6.78242L45.1451 7.96344C45.2037 7.99608 45.2717 8.00696 45.3369 7.99509C45.5012 7.96542 45.6117 7.80221 45.5834 7.6301L45.1735 5.12861L46.9086 3.35709C46.9558 3.30862 46.987 3.24532 46.9965 3.17608C47.022 3.00298 46.9067 2.84275 46.7414 2.81703Z" fill="#F4A703"/>
<path d="M46.7414 2.81703L44.3432 2.45204L43.2711 0.176068C43.2418 0.113753 43.1937 0.0633076 43.1341 0.0326447C42.9849 -0.0445069 42.8035 0.0197861 42.7289 0.176068L41.6569 2.45204L39.2586 2.81703C39.1925 2.82692 39.132 2.85956 39.0858 2.90902C39.0298 2.96924 38.999 3.05026 39 3.13428C39.0011 3.2183 39.034 3.29844 39.0914 3.35709L40.8266 5.12861L40.4166 7.6301C40.407 7.68829 40.4132 7.74814 40.4344 7.80286C40.4556 7.85757 40.491 7.90497 40.5367 7.93967C40.5823 7.97438 40.6363 7.995 40.6925 7.9992C40.7488 8.0034 40.805 7.99101 40.8549 7.96344L43 6.78242L45.1451 7.96344C45.2037 7.99608 45.2717 8.00696 45.3369 7.99509C45.5012 7.96542 45.6117 7.80221 45.5834 7.6301L45.1735 5.12861L46.9086 3.35709C46.9558 3.30862 46.987 3.24532 46.9965 3.17608C47.022 3.00298 46.9067 2.84275 46.7414 2.81703Z" fill="#F4A703"/>
<path d="M59.7414 2.81703L57.3432 2.45204L56.2711 0.176068C56.2418 0.113753 56.1937 0.0633076 56.1341 0.0326447C55.9849 -0.0445069 55.8035 0.0197861 55.7289 0.176068L54.6569 2.45204L52.2586 2.81703C52.1925 2.82692 52.132 2.85956 52.0858 2.90902C52.0298 2.96924 51.999 3.05026 52 3.13428C52.0011 3.2183 52.034 3.29844 52.0914 3.35709L53.8266 5.12861L53.4166 7.6301C53.407 7.68829 53.4132 7.74814 53.4344 7.80286C53.4556 7.85757 53.491 7.90497 53.5367 7.93967C53.5823 7.97438 53.6363 7.995 53.6925 7.9992C53.7488 8.0034 53.805 7.99101 53.8549 7.96344L56 6.78242L58.1451 7.96344C58.2037 7.99608 58.2717 8.00696 58.3369 7.99509C58.5012 7.96542 58.6117 7.80221 58.5834 7.6301L58.1735 5.12861L59.9086 3.35709C59.9558 3.30862 59.987 3.24532 59.9965 3.17608C60.022 3.00298 59.9067 2.84275 59.7414 2.81703Z" fill="#F4A703"/>
<path d="M59.7414 2.81703L57.3432 2.45204L56.2711 0.176068C56.2418 0.113753 56.1937 0.0633076 56.1341 0.0326447C55.9849 -0.0445069 55.8035 0.0197861 55.7289 0.176068L54.6569 2.45204L52.2586 2.81703C52.1925 2.82692 52.132 2.85956 52.0858 2.90902C52.0298 2.96924 51.999 3.05026 52 3.13428C52.0011 3.2183 52.034 3.29844 52.0914 3.35709L53.8266 5.12861L53.4166 7.6301C53.407 7.68829 53.4132 7.74814 53.4344 7.80286C53.4556 7.85757 53.491 7.90497 53.5367 7.93967C53.5823 7.97438 53.6363 7.995 53.6925 7.9992C53.7488 8.0034 53.805 7.99101 53.8549 7.96344L56 6.78242L58.1451 7.96344C58.2037 7.99608 58.2717 8.00696 58.3369 7.99509C58.5012 7.96542 58.6117 7.80221 58.5834 7.6301L58.1735 5.12861L59.9086 3.35709C59.9558 3.30862 59.987 3.24532 59.9965 3.17608C60.022 3.00298 59.9067 2.84275 59.7414 2.81703Z" fill="#F4A703"/>
<path d="M59.7414 2.81703L57.3432 2.45204L56.2711 0.176068C56.2418 0.113753 56.1937 0.0633076 56.1341 0.0326447C55.9849 -0.0445069 55.8035 0.0197861 55.7289 0.176068L54.6569 2.45204L52.2586 2.81703C52.1925 2.82692 52.132 2.85956 52.0858 2.90902C52.0298 2.96924 51.999 3.05026 52 3.13428C52.0011 3.2183 52.034 3.29844 52.0914 3.35709L53.8266 5.12861L53.4166 7.6301C53.407 7.68829 53.4132 7.74814 53.4344 7.80286C53.4556 7.85757 53.491 7.90497 53.5367 7.93967C53.5823 7.97438 53.6363 7.995 53.6925 7.9992C53.7488 8.0034 53.805 7.99101 53.8549 7.96344L56 6.78242L58.1451 7.96344C58.2037 7.99608 58.2717 8.00696 58.3369 7.99509C58.5012 7.96542 58.6117 7.80221 58.5834 7.6301L58.1735 5.12861L59.9086 3.35709C59.9558 3.30862 59.987 3.24532 59.9965 3.17608C60.022 3.00298 59.9067 2.84275 59.7414 2.81703Z" fill="#F4A703"/>
</svg>
