<svg width="14" height="16" viewBox="0 0 14 16" fill="none" xmlns="http://www.w3.org/2000/svg">
<path d="M5.47239 13.4209C5.84732 13.3416 8.13196 13.3416 8.50689 13.4209C8.82741 13.495 9.17402 13.6679 9.17402 14.0456C9.15539 14.4052 8.94444 14.7239 8.65299 14.9264C8.27507 15.221 7.83156 15.4076 7.36793 15.4748C7.11151 15.508 6.85957 15.5088 6.6121 15.4748C6.14771 15.4076 5.7042 15.221 5.32703 14.9256C5.03484 14.7239 4.82389 14.4052 4.80526 14.0456C4.80526 13.6679 5.15187 13.495 5.47239 13.4209ZM7.03392 0.5C8.59403 0.5 10.1877 1.24026 11.1343 2.4685C11.7485 3.25937 12.0303 4.04949 12.0303 5.27773V5.59725C12.0303 6.5392 12.2793 7.09439 12.8271 7.73419C13.2423 8.20555 13.375 8.8106 13.375 9.46702C13.375 10.1227 13.1596 10.7451 12.728 11.2504C12.163 11.8563 11.3662 12.243 10.5529 12.3102C9.37446 12.4107 8.19524 12.4953 7.00037 12.4953C5.80476 12.4953 4.62629 12.4447 3.44781 12.3102C2.63384 12.243 1.83701 11.8563 1.27275 11.2504C0.841165 10.7451 0.625 10.1227 0.625 9.46702C0.625 8.8106 0.758426 8.20555 1.17287 7.73419C1.73788 7.09439 1.97044 6.5392 1.97044 5.59725V5.27773C1.97044 4.01625 2.285 3.19139 2.93275 2.3839C3.8958 1.20627 5.43951 0.5 6.96683 0.5H7.03392Z" fill="black"/>
</svg>
