<svg width="22" height="22" viewBox="0 0 22 22" fill="none" xmlns="http://www.w3.org/2000/svg">
<path fill-rule="evenodd" clip-rule="evenodd" d="M22 17.9289C22 21.5782 15.7222 22 11.0014 22L10.6636 21.9998C7.65584 21.9939 0 21.8426 0 17.9068C0 14.332 6.02549 13.8543 10.7104 13.8362L11.3392 13.8359C14.3467 13.8418 22 13.9931 22 17.9289ZM11.0014 15.4965C5.08333 15.4965 2.08333 16.3069 2.08333 17.9068C2.08333 19.521 5.08333 20.3392 11.0014 20.3392C16.9181 20.3392 19.9167 19.5288 19.9167 17.9289C19.9167 16.3147 16.9181 15.4965 11.0014 15.4965ZM11.0014 0C15.0681 0 18.375 2.63729 18.375 5.8791C18.375 9.1209 15.0681 11.7571 11.0014 11.7571H10.9569C6.89861 11.7471 3.61111 9.10872 3.62496 5.87578C3.62496 2.63729 6.93333 0 11.0014 0ZM11.0014 1.58105C8.02778 1.58105 5.6083 3.50864 5.6083 5.8791C5.59861 8.24181 8 10.1683 10.9611 10.1771L11.0014 10.9677V10.1771C13.9736 10.1771 16.3917 8.24845 16.3917 5.8791C16.3917 3.50864 13.9736 1.58105 11.0014 1.58105Z" fill="#DF1A5A"/>
</svg>
