<svg width="22" height="22" viewBox="0 0 22 22" fill="none" xmlns="http://www.w3.org/2000/svg">
<path fill-rule="evenodd" clip-rule="evenodd" d="M10.573 0C16.4028 0 21.1449 4.63746 21.1449 10.3387C21.1449 13.0286 20.0894 15.4818 18.362 17.323L21.7609 20.64C22.079 20.9511 22.0801 21.4543 21.762 21.7654C21.6035 21.9225 21.3939 22 21.1855 22C20.9781 22 20.7697 21.9225 20.6101 21.7675L17.1702 18.4129C15.3607 19.8301 13.0663 20.6785 10.573 20.6785C4.74314 20.6785 0 16.04 0 10.3387C0 4.63746 4.74314 0 10.573 0ZM10.573 1.59253C5.64096 1.59253 1.62845 5.51547 1.62845 10.3387C1.62845 15.162 5.64096 19.086 10.573 19.086C15.5039 19.086 19.5165 15.162 19.5165 10.3387C19.5165 5.51547 15.5039 1.59253 10.573 1.59253Z" fill="#DC175D"/>
</svg>
