<svg width="17" height="15" viewBox="0 0 17 15" fill="none" xmlns="http://www.w3.org/2000/svg">
<path d="M1 6.5C0.723858 6.5 0.5 6.72386 0.5 7V8C0.5 8.27614 0.723858 8.5 1 8.5H12.7152L8.06988 12.8865C7.86961 13.0756 7.86001 13.391 8.04841 13.592L8.7516 14.342C8.84251 14.4389 8.96829 14.4957 9.10114 14.4998C9.23399 14.5038 9.36299 14.4548 9.45963 14.3635L16.3433 7.86354C16.4433 7.76908 16.5 7.63758 16.5 7.5C16.5 7.36242 16.4433 7.23092 16.3433 7.13646L9.45963 0.636461C9.36299 0.545208 9.23399 0.496188 9.10114 0.500231C8.96829 0.504275 8.84251 0.56105 8.7516 0.658012L8.04841 1.40801C7.86001 1.60896 7.86961 1.92443 8.06988 2.11354L12.7152 6.5H1Z" fill="black" stroke="black" stroke-linejoin="round"/>
</svg>
